<?xml version="1.0" encoding="UTF-8" standalone="no"?>
<svg
   xmlns:dc="http://purl.org/dc/elements/1.1/"
   xmlns:cc="http://creativecommons.org/ns#"
   xmlns:rdf="http://www.w3.org/1999/02/22-rdf-syntax-ns#"
   xmlns:svg="http://www.w3.org/2000/svg"
   xmlns="http://www.w3.org/2000/svg"
   xmlns:sodipodi="http://sodipodi.sourceforge.net/DTD/sodipodi-0.dtd"
   xmlns:inkscape="http://www.inkscape.org/namespaces/inkscape"
   width="51.164928mm"
   height="51.164928mm"
   viewBox="0 0 51.164928 51.164928"
   version="1.1"
   id="svg1122"
   inkscape:version="1.0 (4035a4fb49, 2020-05-01)"
   sodipodi:docname="modified.svg">
  <defs
     id="defs1116" />
  <sodipodi:namedview
     id="base"
     pagecolor="#ffffff"
     bordercolor="#666666"
     borderopacity="1.0"
     inkscape:pageopacity="0.0"
     inkscape:pageshadow="2"
     inkscape:zoom="2.2470882"
     inkscape:cx="155.23043"
     inkscape:cy="111.02879"
     inkscape:document-units="mm"
     inkscape:current-layer="layer1"
     inkscape:document-rotation="0"
     showgrid="false"
     fit-margin-top="0"
     fit-margin-left="0"
     fit-margin-right="0"
     fit-margin-bottom="0"
     inkscape:window-width="1366"
     inkscape:window-height="722"
     inkscape:window-x="0"
     inkscape:window-y="46"
     inkscape:window-maximized="1" />
  <metadata
     id="metadata1119">
    <rdf:RDF>
      <cc:Work
         rdf:about="">
        <dc:format>image/svg+xml</dc:format>
        <dc:type
           rdf:resource="http://purl.org/dc/dcmitype/StillImage" />
        <dc:title></dc:title>
      </cc:Work>
    </rdf:RDF>
  </metadata>
  <g
     inkscape:label="Layer 1"
     inkscape:groupmode="layer"
     id="layer1"
     transform="translate(0.58249998,-99.417536)">
    <path
       id="path1628"
       d="m 30.349116,143.69914 c -0.7025,-0.15593 -0.748994,-0.32529 -0.858267,-3.12631 -0.03356,-0.86024 -0.06138,-2.59555 -0.06182,-3.85626 -4.37e-4,-1.2607 -0.04212,-2.29218 -0.09261,-2.29218 -0.05049,0 -1.50498,0.75877 -3.232203,1.68616 -4.989798,2.67915 -5.170386,2.74068 -5.849341,1.99285 -0.441647,-0.48643 -1.123945,-1.72687 -1.123945,-2.04337 0,-0.35015 0.755921,-0.86642 3.576047,-2.44234 3.720911,-2.07926 4.375748,-2.47596 4.375748,-2.65081 0,-0.0864 -1.559056,-1.02328 -3.578023,-2.15013 -1.967912,-1.09835 -3.739473,-2.12003 -3.936802,-2.27038 -0.463247,-0.35298 -0.458598,-0.73404 0.02014,-1.65085 0.505129,-0.96735 0.972117,-1.47362 1.359299,-1.47362 0.407879,0 1.662707,0.57918 4.143077,1.91229 2.968827,1.59565 4.176566,2.19488 4.26179,2.11452 0.04181,-0.0394 0.07601,-1.99306 0.07601,-4.34143 l 3e-6,-4.26974 0.394334,-0.29664 c 0.376849,-0.28347 0.45068,-0.29663 1.665116,-0.29663 1.214438,0 1.288269,0.0131 1.665117,0.29663 l 0.394334,0.29664 4e-6,4.26974 c 3e-6,2.34837 0.03212,4.30005 0.07137,4.33706 0.09501,0.0896 0.435268,-0.0785 4.461038,-2.20364 3.915484,-2.0669 4.015271,-2.09746 4.617264,-1.41429 0.388883,0.44133 0.971042,1.51749 1.085948,2.00745 0.06155,0.26246 0.0053,0.36719 -0.376365,0.70114 -0.2468,0.21593 -1.956343,1.21779 -3.798988,2.22634 -1.842641,1.00857 -3.45802,1.91803 -3.589724,2.02105 l -0.239467,0.18729 0.286036,0.21337 c 0.157318,0.11735 0.955359,0.58944 1.77342,1.04908 0.818063,0.45965 2.336912,1.31421 3.375221,1.89901 1.939336,1.0923 2.631529,1.59839 2.631529,1.92403 0,0.33405 -0.942717,1.92918 -1.329224,2.24912 -0.594548,0.49215 -0.545095,0.51109 -5.364012,-2.05437 -1.761979,-0.93804 -3.2937,-1.73772 -3.403823,-1.77706 -0.188614,-0.0673 -0.200226,0.17794 -0.200226,4.23011 v 4.30166 l -0.351573,0.40211 -0.351573,0.40212 -1.050003,-0.0111 c -0.577501,-0.006 -1.227688,-0.0505 -1.444863,-0.0987 z"
       style="fill:#ffffff;fill-opacity:1;stroke:#47214f;stroke-width:2.409;stroke-linecap:round;stroke-linejoin:bevel;stroke-miterlimit:4;stroke-dasharray:none;stroke-dashoffset:38.0792;stroke-opacity:1;paint-order:stroke fill markers" />
  </g>
</svg>
