<?xml version="1.0" encoding="UTF-8" standalone="no"?>
<svg
   xmlns:dc="http://purl.org/dc/elements/1.1/"
   xmlns:cc="http://creativecommons.org/ns#"
   xmlns:rdf="http://www.w3.org/1999/02/22-rdf-syntax-ns#"
   xmlns:svg="http://www.w3.org/2000/svg"
   xmlns="http://www.w3.org/2000/svg"
   xmlns:sodipodi="http://sodipodi.sourceforge.net/DTD/sodipodi-0.dtd"
   xmlns:inkscape="http://www.inkscape.org/namespaces/inkscape"
   width="51.164928mm"
   height="51.164928mm"
   viewBox="0 0 51.164928 51.164928"
   version="1.1"
   id="svg1122"
   inkscape:version="1.0 (4035a4fb49, 2020-05-01)"
   sodipodi:docname="settings.svg">
  <defs
     id="defs1116" />
  <sodipodi:namedview
     id="base"
     pagecolor="#ffffff"
     bordercolor="#666666"
     borderopacity="1.0"
     inkscape:pageopacity="0.0"
     inkscape:pageshadow="2"
     inkscape:zoom="1.4077353"
     inkscape:cx="70.077378"
     inkscape:cy="119.60673"
     inkscape:document-units="mm"
     inkscape:current-layer="layer1"
     inkscape:document-rotation="0"
     showgrid="false"
     fit-margin-top="0"
     fit-margin-left="0"
     fit-margin-right="0"
     fit-margin-bottom="0"
     inkscape:window-width="1366"
     inkscape:window-height="722"
     inkscape:window-x="0"
     inkscape:window-y="46"
     inkscape:window-maximized="1" />
  <metadata
     id="metadata1119">
    <rdf:RDF>
      <cc:Work
         rdf:about="">
        <dc:format>image/svg+xml</dc:format>
        <dc:type
           rdf:resource="http://purl.org/dc/dcmitype/StillImage" />
        <dc:title />
      </cc:Work>
    </rdf:RDF>
  </metadata>
  <g
     inkscape:label="Layer 1"
     inkscape:groupmode="layer"
     id="layer1"
     transform="translate(0.58249998,-99.417536)">
    <path
       id="path1539"
       d="m 23.68698,141.84641 c -5.909065,-0.62289 -11.063599,-4.34961 -13.489269,-9.7527 -2.1079709,-4.69543 -1.9517733,-9.90876 0.435666,-14.54106 2.27163,-4.40759 6.531943,-7.5966 11.558192,-8.65176 0.922365,-0.19363 1.390881,-0.22633 3.214198,-0.22435 1.831376,0.002 2.285975,0.035 3.201664,0.23286 6.745925,1.45729 11.624643,6.31987 13.130662,13.08724 0.192894,0.86679 0.224086,1.31451 0.225843,3.24176 0.0019,1.94035 -0.02799,2.37386 -0.224989,3.2778 -0.776052,3.56089 -2.312273,6.31633 -4.921834,8.82803 -3.466643,3.33665 -8.338791,5.00726 -13.130133,4.50218 z m 2.735188,-6.59973 c 2.508766,-0.28315 4.525468,-1.29332 6.277824,-3.14454 1.206635,-1.27471 2.004155,-2.73334 2.474648,-4.52601 0.279831,-1.06621 0.25922,-3.67128 -0.03753,-4.7441 -0.517017,-1.8691 -1.378638,-3.37741 -2.663094,-4.66187 -1.799773,-1.79977 -4.04427,-2.7881 -6.610864,-2.91098 -7.590836,-0.36343 -12.782934,7.46777 -9.51391,14.34975 1.619807,3.41003 4.922825,5.53511 8.904069,5.72865 0.139755,0.007 0.665743,-0.0341 1.168861,-0.0909 z"
       style="fill:#47214f;fill-opacity:1;stroke:#000000;stroke-width:0.95;stroke-linecap:round;stroke-linejoin:round;stroke-miterlimit:4;stroke-dasharray:none;stroke-dashoffset:38.0792;stroke-opacity:0.811765;paint-order:normal" />
    <path
       sodipodi:nodetypes="cccc"
       d="M 19.590439,110.00264 V 105.0345 H 31.17801 v 4.96814"
       style="fill:#47214f;fill-opacity:1;stroke:#000000;stroke-width:0.95;stroke-linecap:butt;stroke-linejoin:bevel;stroke-miterlimit:4;stroke-dasharray:none;stroke-dashoffset:38.0792;stroke-opacity:0.811765;paint-order:normal"
       id="rect1526" />
    <path
       id="rect1526-6"
       style="fill:#47214f;fill-opacity:1;stroke:#000000;stroke-width:0.95;stroke-linecap:butt;stroke-linejoin:bevel;stroke-miterlimit:4;stroke-dasharray:none;stroke-dashoffset:38.0792;stroke-opacity:0.811765;paint-order:normal"
       d="m 31.178071,140.55548 v 4.96815 H 19.5905 v -4.96815"
       sodipodi:nodetypes="cccc" />
    <path
       id="rect1526-7"
       style="fill:#47214f;fill-opacity:1;stroke:#000000;stroke-width:0.95;stroke-linecap:butt;stroke-linejoin:bevel;stroke-miterlimit:4;stroke-dasharray:none;stroke-dashoffset:38.0792;stroke-opacity:0.811765;paint-order:normal"
       d="m 35.736603,112.60639 4.302545,-2.48408 5.793785,10.03513 -4.302545,2.48408"
       sodipodi:nodetypes="cccc" />
    <path
       sodipodi:nodetypes="cccc"
       d="m 15.045094,137.87822 -4.302542,2.48408 -5.793785,-10.03513 4.3025421,-2.48408"
       style="fill:#47214f;fill-opacity:1;stroke:#000000;stroke-width:0.95;stroke-linecap:butt;stroke-linejoin:bevel;stroke-miterlimit:4;stroke-dasharray:none;stroke-dashoffset:38.0792;stroke-opacity:0.811765;paint-order:normal"
       id="rect1526-7-5" />
    <path
       id="rect1526-7-5-3"
       style="fill:#47214f;fill-opacity:1;stroke:#000000;stroke-width:0.95;stroke-linecap:butt;stroke-linejoin:bevel;stroke-miterlimit:4;stroke-dasharray:none;stroke-dashoffset:38.0792;stroke-opacity:0.811765;paint-order:normal"
       d="m 9.2545056,122.63466 -4.3025422,-2.48408 5.7937906,-10.03514 4.302542,2.48408"
       sodipodi:nodetypes="cccc" />
    <path
       id="rect1526-7-5-5"
       style="fill:#47214f;fill-opacity:1;stroke:#000000;stroke-width:0.95;stroke-linecap:butt;stroke-linejoin:bevel;stroke-miterlimit:4;stroke-dasharray:none;stroke-dashoffset:38.0792;stroke-opacity:0.811765;paint-order:normal"
       d="m 41.549578,127.82375 4.302548,2.48407 -5.793783,10.03513 -4.302549,-2.48407"
       sodipodi:nodetypes="cccc" />
  </g>
</svg>
